<svg xmlns="http://www.w3.org/2000/svg" viewBox="0 0 45.2 29.1">
    <path fill="#202020"
        d="M420 1409c30 5 24.4 39.1 24.9 22.6-3.8-20.9-30.3-27.3-47-21.3a44.6 44.6 0 0 0-26 31.4c-65.2 52.4-173.3-8.5-170-52 115.6 8.5 135.5 5 233.5-19.6 41.8-10.5 85.6 23.3 67.8 76a85 85 0 0 1-39.9 45.9c-95.1 45.2-122.4-94-43.2-83z"
        filter="url(#b)" paint-order="markers fill stroke"
        transform="rotate(-6.5 -1559.862 335.236)scale(.13725)" />
    <path fill="#f9f9f9" stroke="#8d8d8d" stroke-linecap="round" stroke-width=".68625"
        d="M30.945 10.676c4.145.205 3.925 4.94 3.733 2.69-.837-2.787-4.556-3.253-6.739-2.183a6.12 6.12 0 0 0-3.06 4.694C16.78 24.03 1.12 17.387.887 11.403c15.908-.618 18.556-1.4 31.554-6.272 5.531-2.087 12.023 1.852 10.417 9.305a11.67 11.67 0 0 1-4.735 6.89c-12.27 7.631-18.158-10.939-7.178-10.65z"
        paint-order="markers fill stroke" />
    <path fill="url(#c)"
        d="M446 1468.4c-1 12-20.7 30.6-38.7 25.3-20.3-6-39-37.6-36.9-57.3 28.9-49 59.2-27.7 28.9-13.7-16.2 7.4-5.4 52.8 16.3 44.3 28.1-16.3 32.1-23.2 30.4 1.4"
        transform="rotate(-6.5 -1559.862 335.236)scale(.13725)" />
    <path fill="url(#d)"
        d="M503.4 1411.9c20 47.6-63.3 115.4-107.7 73.5 0-34.3 58.6-5.5 68-45.5.5-62.4 39-40.6 39.7-28"
        transform="rotate(-6.5 -1559.862 335.236)scale(.13725)" />
    <path fill="url(#e)"
        d="M210.3 1390.2s45.6 42.1 87.3 41.1c41.6-1 85.7-24.8 85.7-24.8l-12.8 31.2c-57.2 48.7-180.5-4.3-160.2-47.5"
        transform="rotate(-6.5 -1559.862 335.236)scale(.13725)" />
    <path fill="none" stroke="#424242" stroke-linecap="round" stroke-width="1.18035"
        d="M30.945 10.676c4.145.205 3.925 4.94 3.733 2.69-.837-2.787-4.556-3.253-6.739-2.183a6.12 6.12 0 0 0-3.06 4.694C16.78 24.03 1.12 17.387.887 11.403c15.908-.618 18.556-1.4 31.554-6.272 5.531-2.087 12.023 1.852 10.417 9.305a11.67 11.67 0 0 1-4.735 6.89c-12.27 7.631-18.158-10.939-7.178-10.65z"
        paint-order="markers fill stroke" />
</svg>